<svg width="202" height="202" viewBox="0 0 202 202" fill="none" xmlns="http://www.w3.org/2000/svg">
<rect width="202" height="202" fill="#2A2424"/>
<ellipse cx="101" cy="155" rx="73" ry="16" fill="url(#paint0_radial_71_2)" fill-opacity="0.61"/>
<path d="M101 139.1C121.153 139.1 139.396 140.891 152.598 143.784C159.199 145.231 164.535 146.953 168.218 148.861C170.059 149.815 171.482 150.814 172.443 151.844C173.405 152.873 173.9 153.929 173.9 155C173.9 156.071 173.405 157.127 172.443 158.156C171.482 159.186 170.059 160.185 168.218 161.139C164.535 163.047 159.199 164.769 152.598 166.216C139.396 169.109 121.153 170.9 101 170.9C80.8466 170.9 62.6038 169.109 49.4023 166.216C42.8009 164.769 37.4649 163.047 33.7822 161.139C31.9411 160.185 30.5183 159.186 29.5566 158.156C28.5954 157.127 28.0996 156.071 28.0996 155C28.0996 153.929 28.5954 152.873 29.5566 151.844C30.5183 150.814 31.9411 149.815 33.7822 148.861C37.4649 146.953 42.8009 145.231 49.4023 143.784C62.6038 140.891 80.8466 139.1 101 139.1Z" stroke="white" stroke-opacity="0.26" stroke-width="0.2"/>
<circle cx="101.5" cy="71.5" r="46.5" fill="url(#paint1_radial_71_2)"/>
<path opacity="0.16" d="M53.426 190L50.531 181.75C50.431 181.46 50.336 181.275 50.246 181.195C50.166 181.105 50.031 181.04 49.841 181L49.271 180.88V179.485H55.286V180.955L54.536 181.06C54.346 181.08 54.231 181.145 54.191 181.255C54.151 181.365 54.171 181.55 54.251 181.81L55.901 187H56.006L57.716 181.9C57.806 181.61 57.826 181.405 57.776 181.285C57.736 181.165 57.606 181.09 57.386 181.06L56.651 180.955L56.756 179.485H60.941V180.91L60.311 181.03C60.141 181.06 60.016 181.125 59.936 181.225C59.856 181.315 59.756 181.535 59.636 181.885L56.771 190H53.426ZM65.1912 190.21C64.4712 190.21 63.8412 190.05 63.3012 189.73C62.7712 189.41 62.3562 188.955 62.0562 188.365C61.7662 187.775 61.6212 187.085 61.6212 186.295C61.6212 185.465 61.7712 184.745 62.0712 184.135C62.3812 183.515 62.8112 183.035 63.3612 182.695C63.9112 182.355 64.5512 182.185 65.2812 182.185C65.8312 182.185 66.3112 182.295 66.7212 182.515C67.1412 182.735 67.4662 183.045 67.6962 183.445C67.9262 183.845 68.0412 184.31 68.0412 184.84C68.0412 185.05 68.0212 185.28 67.9812 185.53C67.9512 185.77 67.9012 186.02 67.8312 186.28H63.1362C63.1562 186.87 63.2662 187.38 63.4662 187.81C63.6662 188.23 63.9412 188.55 64.2912 188.77C64.6512 188.99 65.0712 189.1 65.5512 189.1C65.9312 189.1 66.3012 189.025 66.6612 188.875C67.0212 188.715 67.3462 188.49 67.6362 188.2L68.1462 188.71C67.7962 189.18 67.3562 189.55 66.8262 189.82C66.3062 190.08 65.7612 190.21 65.1912 190.21ZM63.1362 185.47H66.5862C66.6062 185.37 66.6162 185.265 66.6162 185.155C66.6262 185.035 66.6312 184.91 66.6312 184.78C66.6312 184.17 66.5012 183.715 66.2412 183.415C65.9912 183.105 65.6162 182.95 65.1162 182.95C64.7362 182.95 64.4062 183.045 64.1262 183.235C63.8562 183.425 63.6362 183.71 63.4662 184.09C63.2962 184.46 63.1862 184.92 63.1362 185.47ZM69.373 190V189.31L70.093 189.175C70.253 189.145 70.358 189.085 70.408 188.995C70.458 188.895 70.483 188.715 70.483 188.455V184.195C70.483 183.845 70.453 183.61 70.393 183.49C70.333 183.37 70.193 183.295 69.973 183.265L69.238 183.16L69.343 182.455L71.398 182.29L71.563 182.395L71.728 183.745H71.773C72.053 183.235 72.383 182.85 72.763 182.59C73.153 182.32 73.568 182.185 74.008 182.185C74.478 182.185 74.848 182.315 75.118 182.575C75.398 182.835 75.538 183.18 75.538 183.61C75.538 183.87 75.503 184.09 75.433 184.27C75.363 184.44 75.253 184.57 75.103 184.66C74.953 184.75 74.768 184.795 74.548 184.795C74.258 184.795 74.038 184.74 73.888 184.63C73.738 184.51 73.663 184.345 73.663 184.135C73.663 184.055 73.673 183.975 73.693 183.895C73.713 183.815 73.743 183.72 73.783 183.61C73.833 183.5 73.888 183.38 73.948 183.25C73.728 183.14 73.498 183.125 73.258 183.205C73.018 183.275 72.793 183.42 72.583 183.64C72.383 183.85 72.213 184.11 72.073 184.42C71.943 184.72 71.878 185.04 71.878 185.38V188.485C71.878 188.725 71.898 188.89 71.938 188.98C71.988 189.06 72.093 189.11 72.253 189.13L73.543 189.325V190H69.373ZM76.2528 190V189.295L77.1078 189.16C77.3078 189.13 77.4328 189.065 77.4828 188.965C77.5428 188.865 77.5728 188.675 77.5728 188.395V184.24C77.5728 183.88 77.5378 183.64 77.4678 183.52C77.4078 183.4 77.2628 183.325 77.0328 183.295L76.3128 183.19L76.4028 182.47L78.7878 182.35L78.9678 182.425V188.455C78.9678 188.645 78.9928 188.8 79.0428 188.92C79.0928 189.04 79.2228 189.12 79.4328 189.16L80.2728 189.31V190H76.2528ZM78.0528 180.7C77.7628 180.7 77.5228 180.61 77.3328 180.43C77.1428 180.24 77.0478 180 77.0478 179.71C77.0478 179.42 77.1428 179.18 77.3328 178.99C77.5228 178.8 77.7628 178.705 78.0528 178.705C78.3528 178.705 78.5978 178.8 78.7878 178.99C78.9778 179.17 79.0728 179.405 79.0728 179.695C79.0728 179.985 78.9778 180.225 78.7878 180.415C78.5978 180.605 78.3528 180.7 78.0528 180.7ZM81.6229 190.21L81.3829 187.63L82.1929 187.57C82.3329 187.96 82.5029 188.29 82.7029 188.56C82.9129 188.82 83.1529 189.015 83.4229 189.145C83.6929 189.275 83.9879 189.34 84.3079 189.34C84.7579 189.34 85.1079 189.225 85.3579 188.995C85.6079 188.765 85.7329 188.455 85.7329 188.065C85.7329 187.835 85.6779 187.645 85.5679 187.495C85.4679 187.345 85.2879 187.21 85.0279 187.09C84.7679 186.96 84.4129 186.835 83.9629 186.715C83.5329 186.595 83.1629 186.465 82.8529 186.325C82.5529 186.185 82.3029 186.025 82.1029 185.845C81.9129 185.665 81.7729 185.46 81.6829 185.23C81.6029 185 81.5629 184.735 81.5629 184.435C81.5629 183.975 81.6679 183.58 81.8779 183.25C82.0879 182.91 82.3879 182.65 82.7779 182.47C83.1679 182.28 83.6229 182.185 84.1429 182.185C84.4529 182.185 84.7579 182.235 85.0579 182.335C85.3679 182.425 85.6129 182.545 85.7929 182.695L85.9129 182.185H86.5579L86.7529 184.63L85.9279 184.555C85.8179 184.075 85.6029 183.69 85.2829 183.4C84.9629 183.11 84.5879 182.965 84.1579 182.965C83.7279 182.965 83.3929 183.065 83.1529 183.265C82.9229 183.455 82.8079 183.725 82.8079 184.075C82.8079 184.295 82.8579 184.48 82.9579 184.63C83.0679 184.78 83.2479 184.915 83.4979 185.035C83.7579 185.155 84.1029 185.28 84.5329 185.41C84.9829 185.54 85.3579 185.675 85.6579 185.815C85.9679 185.955 86.2179 186.115 86.4079 186.295C86.6079 186.475 86.7479 186.685 86.8279 186.925C86.9179 187.155 86.9629 187.42 86.9629 187.72C86.9629 188.21 86.8479 188.645 86.6179 189.025C86.3879 189.395 86.0729 189.685 85.6729 189.895C85.2729 190.105 84.8079 190.21 84.2779 190.21C83.8879 190.21 83.5279 190.165 83.1979 190.075C82.8779 189.985 82.6129 189.855 82.4029 189.685L82.2379 190.21H81.6229ZM88.0302 190V189.295L88.8852 189.16C89.0852 189.13 89.2102 189.065 89.2602 188.965C89.3202 188.865 89.3502 188.675 89.3502 188.395V184.24C89.3502 183.88 89.3152 183.64 89.2452 183.52C89.1852 183.4 89.0402 183.325 88.8102 183.295L88.0902 183.19L88.1802 182.47L90.5652 182.35L90.7452 182.425V188.455C90.7452 188.645 90.7702 188.8 90.8202 188.92C90.8702 189.04 91.0002 189.12 91.2102 189.16L92.0502 189.31V190H88.0302ZM89.8302 180.7C89.5402 180.7 89.3002 180.61 89.1102 180.43C88.9202 180.24 88.8252 180 88.8252 179.71C88.8252 179.42 88.9202 179.18 89.1102 178.99C89.3002 178.8 89.5402 178.705 89.8302 178.705C90.1302 178.705 90.3752 178.8 90.5652 178.99C90.7552 179.17 90.8502 179.405 90.8502 179.695C90.8502 179.985 90.7552 180.225 90.5652 180.415C90.3752 180.605 90.1302 180.7 89.8302 180.7ZM93.2353 190V189.31L93.9553 189.19C94.1153 189.16 94.2203 189.1 94.2703 189.01C94.3203 188.91 94.3453 188.73 94.3453 188.47V184.18C94.3453 183.82 94.3153 183.585 94.2553 183.475C94.1953 183.355 94.0553 183.28 93.8353 183.25L93.1003 183.145L93.2053 182.455L95.3053 182.29L95.4853 182.395L95.5903 183.73H95.6353C95.8153 183.42 96.0353 183.15 96.2953 182.92C96.5653 182.69 96.8603 182.51 97.1803 182.38C97.5003 182.25 97.8253 182.185 98.1553 182.185C98.7453 182.185 99.2303 182.32 99.6103 182.59C99.9903 182.85 100.255 183.24 100.405 183.76C100.645 183.29 101 182.91 101.47 182.62C101.94 182.33 102.435 182.185 102.955 182.185C103.465 182.185 103.895 182.285 104.245 182.485C104.605 182.685 104.875 182.975 105.055 183.355C105.235 183.735 105.325 184.2 105.325 184.75V188.59C105.325 188.81 105.355 188.96 105.415 189.04C105.475 189.12 105.6 189.175 105.79 189.205L106.495 189.31V190H102.94V189.325L103.48 189.22C103.67 189.17 103.79 189.11 103.84 189.04C103.9 188.96 103.93 188.81 103.93 188.59V185.155C103.93 184.685 103.885 184.31 103.795 184.03C103.705 183.75 103.555 183.55 103.345 183.43C103.145 183.3 102.87 183.235 102.52 183.235C102.13 183.235 101.785 183.325 101.485 183.505C101.185 183.675 100.95 183.915 100.78 184.225C100.62 184.535 100.54 184.9 100.54 185.32V188.53C100.54 188.75 100.56 188.905 100.6 188.995C100.65 189.075 100.75 189.135 100.9 189.175L101.59 189.325V190H98.1403V189.325L98.6803 189.22C98.8703 189.17 98.9903 189.11 99.0403 189.04C99.1003 188.96 99.1303 188.81 99.1303 188.59V185.155C99.1303 184.675 99.0853 184.295 98.9953 184.015C98.9053 183.735 98.7553 183.535 98.5453 183.415C98.3453 183.295 98.0703 183.235 97.7203 183.235C97.3303 183.235 96.9853 183.325 96.6853 183.505C96.3853 183.675 96.1503 183.915 95.9803 184.225C95.8203 184.535 95.7403 184.9 95.7403 185.32V188.53C95.7403 188.76 95.7653 188.915 95.8153 188.995C95.8653 189.075 95.9653 189.135 96.1153 189.175L96.7903 189.325V190H93.2353ZM107.542 190V189.295L108.397 189.16C108.597 189.13 108.722 189.065 108.772 188.965C108.832 188.865 108.862 188.675 108.862 188.395V184.24C108.862 183.88 108.827 183.64 108.757 183.52C108.697 183.4 108.552 183.325 108.322 183.295L107.602 183.19L107.692 182.47L110.077 182.35L110.257 182.425V188.455C110.257 188.645 110.282 188.8 110.332 188.92C110.382 189.04 110.512 189.12 110.722 189.16L111.562 189.31V190H107.542ZM109.342 180.7C109.052 180.7 108.812 180.61 108.622 180.43C108.432 180.24 108.337 180 108.337 179.71C108.337 179.42 108.432 179.18 108.622 178.99C108.812 178.8 109.052 178.705 109.342 178.705C109.642 178.705 109.887 178.8 110.077 178.99C110.267 179.17 110.362 179.405 110.362 179.695C110.362 179.985 110.267 180.225 110.077 180.415C109.887 180.605 109.642 180.7 109.342 180.7ZM112.567 190V189.295L113.407 189.16C113.607 189.13 113.732 189.065 113.782 188.965C113.842 188.865 113.872 188.675 113.872 188.395V180.325C113.872 179.975 113.837 179.75 113.767 179.65C113.697 179.54 113.522 179.465 113.242 179.425L112.582 179.32L112.657 178.585L115.117 178.51L115.267 178.675V188.455C115.267 188.645 115.292 188.8 115.342 188.92C115.392 189.04 115.527 189.12 115.747 189.16L116.587 189.31V190H112.567ZM117.547 190V189.295L118.402 189.16C118.602 189.13 118.727 189.065 118.777 188.965C118.837 188.865 118.867 188.675 118.867 188.395V184.24C118.867 183.88 118.832 183.64 118.762 183.52C118.702 183.4 118.557 183.325 118.327 183.295L117.607 183.19L117.697 182.47L120.082 182.35L120.262 182.425V188.455C120.262 188.645 120.287 188.8 120.337 188.92C120.387 189.04 120.517 189.12 120.727 189.16L121.567 189.31V190H117.547ZM119.347 180.7C119.057 180.7 118.817 180.61 118.627 180.43C118.437 180.24 118.342 180 118.342 179.71C118.342 179.42 118.437 179.18 118.627 178.99C118.817 178.8 119.057 178.705 119.347 178.705C119.647 178.705 119.892 178.8 120.082 178.99C120.272 179.17 120.367 179.405 120.367 179.695C120.367 179.985 120.272 180.225 120.082 180.415C119.892 180.605 119.647 180.7 119.347 180.7ZM125.237 190.21C124.787 190.21 124.417 190.13 124.127 189.97C123.837 189.81 123.617 189.565 123.467 189.235C123.327 188.905 123.257 188.485 123.257 187.975V183.31H122.072V182.545C122.422 182.515 122.712 182.41 122.942 182.23C123.172 182.05 123.352 181.77 123.482 181.39C123.612 181 123.697 180.505 123.737 179.905L124.457 179.815L124.652 179.89V182.395H126.977V183.31H124.652V187.87C124.652 188.29 124.737 188.605 124.907 188.815C125.077 189.025 125.342 189.13 125.702 189.13C125.962 189.13 126.207 189.09 126.437 189.01C126.677 188.92 126.912 188.795 127.142 188.635L127.487 189.16C127.167 189.49 126.812 189.75 126.422 189.94C126.032 190.12 125.637 190.21 125.237 190.21ZM131.395 190.21C130.605 190.21 130.005 189.995 129.595 189.565C129.195 189.125 128.995 188.485 128.995 187.645V184.18C128.995 183.82 128.965 183.585 128.905 183.475C128.845 183.365 128.705 183.29 128.485 183.25L127.825 183.145L127.945 182.455L130.21 182.29L130.39 182.395V187.225C130.39 187.705 130.435 188.085 130.525 188.365C130.615 188.645 130.765 188.845 130.975 188.965C131.185 189.085 131.47 189.145 131.83 189.145C132.25 189.145 132.605 189.065 132.895 188.905C133.195 188.735 133.425 188.495 133.585 188.185C133.755 187.865 133.84 187.495 133.84 187.075V184.18C133.84 183.83 133.81 183.6 133.75 183.49C133.7 183.37 133.56 183.29 133.33 183.25L132.67 183.145L132.775 182.455L135.07 182.29L135.235 182.395V188.515C135.235 188.755 135.265 188.92 135.325 189.01C135.395 189.09 135.525 189.15 135.715 189.19L136.465 189.31V190L134.14 190.09L133.93 188.875H133.885C133.635 189.185 133.38 189.44 133.12 189.64C132.86 189.83 132.59 189.97 132.31 190.06C132.03 190.16 131.725 190.21 131.395 190.21ZM140.678 190.21C140.038 190.21 139.488 190.06 139.028 189.76C138.568 189.46 138.213 189.03 137.963 188.47C137.723 187.9 137.603 187.22 137.603 186.43C137.603 185.56 137.753 184.81 138.053 184.18C138.353 183.54 138.773 183.05 139.313 182.71C139.863 182.36 140.513 182.185 141.263 182.185C141.593 182.185 141.923 182.23 142.253 182.32C142.593 182.41 142.878 182.53 143.108 182.68V180.31C143.108 179.96 143.068 179.735 142.988 179.635C142.918 179.525 142.743 179.45 142.463 179.41L141.803 179.305L141.893 178.585L144.338 178.51L144.503 178.675V188.56C144.503 188.8 144.533 188.965 144.593 189.055C144.663 189.135 144.798 189.195 144.998 189.235L145.733 189.355V190.045L143.423 190.135L143.213 188.95H143.168C142.948 189.23 142.708 189.465 142.448 189.655C142.198 189.835 141.923 189.97 141.623 190.06C141.333 190.16 141.018 190.21 140.678 190.21ZM141.113 189.16C141.513 189.16 141.858 189.065 142.148 188.875C142.448 188.675 142.683 188.4 142.853 188.05C143.023 187.7 143.108 187.3 143.108 186.85V183.775C142.858 183.575 142.568 183.425 142.238 183.325C141.918 183.215 141.583 183.16 141.233 183.16C140.753 183.16 140.353 183.275 140.033 183.505C139.723 183.735 139.488 184.085 139.328 184.555C139.168 185.015 139.088 185.59 139.088 186.28C139.088 186.9 139.163 187.425 139.313 187.855C139.473 188.275 139.703 188.6 140.003 188.83C140.313 189.05 140.683 189.16 141.113 189.16ZM150.211 190.21C149.491 190.21 148.861 190.05 148.321 189.73C147.791 189.41 147.376 188.955 147.076 188.365C146.786 187.775 146.641 187.085 146.641 186.295C146.641 185.465 146.791 184.745 147.091 184.135C147.401 183.515 147.831 183.035 148.381 182.695C148.931 182.355 149.571 182.185 150.301 182.185C150.851 182.185 151.331 182.295 151.741 182.515C152.161 182.735 152.486 183.045 152.716 183.445C152.946 183.845 153.061 184.31 153.061 184.84C153.061 185.05 153.041 185.28 153.001 185.53C152.971 185.77 152.921 186.02 152.851 186.28H148.156C148.176 186.87 148.286 187.38 148.486 187.81C148.686 188.23 148.961 188.55 149.311 188.77C149.671 188.99 150.091 189.1 150.571 189.1C150.951 189.1 151.321 189.025 151.681 188.875C152.041 188.715 152.366 188.49 152.656 188.2L153.166 188.71C152.816 189.18 152.376 189.55 151.846 189.82C151.326 190.08 150.781 190.21 150.211 190.21ZM148.156 185.47H151.606C151.626 185.37 151.636 185.265 151.636 185.155C151.646 185.035 151.651 184.91 151.651 184.78C151.651 184.17 151.521 183.715 151.261 183.415C151.011 183.105 150.636 182.95 150.136 182.95C149.756 182.95 149.426 183.045 149.146 183.235C148.876 183.425 148.656 183.71 148.486 184.09C148.316 184.46 148.206 184.92 148.156 185.47Z" fill="white"/>
<defs>
<radialGradient id="paint0_radial_71_2" cx="0" cy="0" r="1" gradientUnits="userSpaceOnUse" gradientTransform="translate(101 155) scale(73)">
<stop stop-color="#D9D9D9"/>
<stop offset="1" stop-color="#737373" stop-opacity="0.04"/>
</radialGradient>
<radialGradient id="paint1_radial_71_2" cx="0" cy="0" r="1" gradientUnits="userSpaceOnUse" gradientTransform="translate(101.5 71.5) rotate(90) scale(46.5)">
<stop stop-color="white"/>
<stop offset="0.889423" stop-color="#999999" stop-opacity="0.32"/>
</radialGradient>
</defs>
</svg>
