<svg width="161" height="170" viewBox="0 0 161 170" fill="none" xmlns="http://www.w3.org/2000/svg">
<ellipse cx="80" cy="130" rx="73" ry="16" fill="url(#paint0_radial_71_2)" fill-opacity="0.61"/>
<path d="M80 114.1C100.153 114.1 118.396 115.891 131.598 118.784C138.199 120.231 143.535 121.953 147.218 123.861C149.059 124.815 150.482 125.814 151.443 126.844C152.405 127.873 152.9 128.929 152.9 130C152.9 131.071 152.405 132.127 151.443 133.156C150.482 134.186 149.059 135.185 147.218 136.139C143.535 138.047 138.199 139.769 131.598 141.216C118.396 144.109 100.153 145.9 80 145.9C59.8466 145.9 41.6038 144.109 28.4023 141.216C21.8009 139.769 16.4649 138.047 12.7822 136.139C10.9411 135.185 9.51827 134.186 8.55664 133.156C7.59538 132.127 7.09961 131.071 7.09961 130C7.09961 128.929 7.59538 127.873 8.55664 126.844C9.51827 125.814 10.9411 124.815 12.7822 123.861C16.4649 121.953 21.8009 120.231 28.4023 118.784C41.6038 115.891 59.8466 114.1 80 114.1Z" stroke="white" stroke-opacity="0.26" stroke-width="0.2"/>
<circle cx="80.5" cy="46.5" r="46.5" fill="url(#paint1_radial_71_2)"/>
<path opacity="0.16" d="M32.426 165L29.531 156.75C29.431 156.46 29.336 156.275 29.246 156.195C29.166 156.105 29.031 156.04 28.841 156L28.271 155.88V154.485H34.286V155.955L33.536 156.06C33.346 156.08 33.231 156.145 33.191 156.255C33.151 156.365 33.171 156.55 33.251 156.81L34.901 162H35.006L36.716 156.9C36.806 156.61 36.826 156.405 36.776 156.285C36.736 156.165 36.606 156.09 36.386 156.06L35.651 155.955L35.756 154.485H39.941V155.91L39.311 156.03C39.141 156.06 39.016 156.125 38.936 156.225C38.856 156.315 38.756 156.535 38.636 156.885L35.771 165H32.426ZM44.1912 165.21C43.4712 165.21 42.8412 165.05 42.3012 164.73C41.7712 164.41 41.3562 163.955 41.0562 163.365C40.7662 162.775 40.6212 162.085 40.6212 161.295C40.6212 160.465 40.7712 159.745 41.0712 159.135C41.3812 158.515 41.8112 158.035 42.3612 157.695C42.9112 157.355 43.5512 157.185 44.2812 157.185C44.8312 157.185 45.3112 157.295 45.7212 157.515C46.1412 157.735 46.4662 158.045 46.6962 158.445C46.9262 158.845 47.0412 159.31 47.0412 159.84C47.0412 160.05 47.0212 160.28 46.9812 160.53C46.9512 160.77 46.9012 161.02 46.8312 161.28H42.1362C42.1562 161.87 42.2662 162.38 42.4662 162.81C42.6662 163.23 42.9412 163.55 43.2912 163.77C43.6512 163.99 44.0712 164.1 44.5512 164.1C44.9312 164.1 45.3012 164.025 45.6612 163.875C46.0212 163.715 46.3462 163.49 46.6362 163.2L47.1462 163.71C46.7962 164.18 46.3562 164.55 45.8262 164.82C45.3062 165.08 44.7612 165.21 44.1912 165.21ZM42.1362 160.47H45.5862C45.6062 160.37 45.6162 160.265 45.6162 160.155C45.6262 160.035 45.6312 159.91 45.6312 159.78C45.6312 159.17 45.5012 158.715 45.2412 158.415C44.9912 158.105 44.6162 157.95 44.1162 157.95C43.7362 157.95 43.4062 158.045 43.1262 158.235C42.8562 158.425 42.6362 158.71 42.4662 159.09C42.2962 159.46 42.1862 159.92 42.1362 160.47ZM48.373 165V164.31L49.093 164.175C49.253 164.145 49.358 164.085 49.408 163.995C49.458 163.895 49.483 163.715 49.483 163.455V159.195C49.483 158.845 49.453 158.61 49.393 158.49C49.333 158.37 49.193 158.295 48.973 158.265L48.238 158.16L48.343 157.455L50.398 157.29L50.563 157.395L50.728 158.745H50.773C51.053 158.235 51.383 157.85 51.763 157.59C52.153 157.32 52.568 157.185 53.008 157.185C53.478 157.185 53.848 157.315 54.118 157.575C54.398 157.835 54.538 158.18 54.538 158.61C54.538 158.87 54.503 159.09 54.433 159.27C54.363 159.44 54.253 159.57 54.103 159.66C53.953 159.75 53.768 159.795 53.548 159.795C53.258 159.795 53.038 159.74 52.888 159.63C52.738 159.51 52.663 159.345 52.663 159.135C52.663 159.055 52.673 158.975 52.693 158.895C52.713 158.815 52.743 158.72 52.783 158.61C52.833 158.5 52.888 158.38 52.948 158.25C52.728 158.14 52.498 158.125 52.258 158.205C52.018 158.275 51.793 158.42 51.583 158.64C51.383 158.85 51.213 159.11 51.073 159.42C50.943 159.72 50.878 160.04 50.878 160.38V163.485C50.878 163.725 50.898 163.89 50.938 163.98C50.988 164.06 51.093 164.11 51.253 164.13L52.543 164.325V165H48.373ZM55.2528 165V164.295L56.1078 164.16C56.3078 164.13 56.4328 164.065 56.4828 163.965C56.5428 163.865 56.5728 163.675 56.5728 163.395V159.24C56.5728 158.88 56.5378 158.64 56.4678 158.52C56.4078 158.4 56.2628 158.325 56.0328 158.295L55.3128 158.19L55.4028 157.47L57.7878 157.35L57.9678 157.425V163.455C57.9678 163.645 57.9928 163.8 58.0428 163.92C58.0928 164.04 58.2228 164.12 58.4328 164.16L59.2728 164.31V165H55.2528ZM57.0528 155.7C56.7628 155.7 56.5228 155.61 56.3328 155.43C56.1428 155.24 56.0478 155 56.0478 154.71C56.0478 154.42 56.1428 154.18 56.3328 153.99C56.5228 153.8 56.7628 153.705 57.0528 153.705C57.3528 153.705 57.5978 153.8 57.7878 153.99C57.9778 154.17 58.0728 154.405 58.0728 154.695C58.0728 154.985 57.9778 155.225 57.7878 155.415C57.5978 155.605 57.3528 155.7 57.0528 155.7ZM60.6229 165.21L60.3829 162.63L61.1929 162.57C61.3329 162.96 61.5029 163.29 61.7029 163.56C61.9129 163.82 62.1529 164.015 62.4229 164.145C62.6929 164.275 62.9879 164.34 63.3079 164.34C63.7579 164.34 64.1079 164.225 64.3579 163.995C64.6079 163.765 64.7329 163.455 64.7329 163.065C64.7329 162.835 64.6779 162.645 64.5679 162.495C64.4679 162.345 64.2879 162.21 64.0279 162.09C63.7679 161.96 63.4129 161.835 62.9629 161.715C62.5329 161.595 62.1629 161.465 61.8529 161.325C61.5529 161.185 61.3029 161.025 61.1029 160.845C60.9129 160.665 60.7729 160.46 60.6829 160.23C60.6029 160 60.5629 159.735 60.5629 159.435C60.5629 158.975 60.6679 158.58 60.8779 158.25C61.0879 157.91 61.3879 157.65 61.7779 157.47C62.1679 157.28 62.6229 157.185 63.1429 157.185C63.4529 157.185 63.7579 157.235 64.0579 157.335C64.3679 157.425 64.6129 157.545 64.7929 157.695L64.9129 157.185H65.5579L65.7529 159.63L64.9279 159.555C64.8179 159.075 64.6029 158.69 64.2829 158.4C63.9629 158.11 63.5879 157.965 63.1579 157.965C62.7279 157.965 62.3929 158.065 62.1529 158.265C61.9229 158.455 61.8079 158.725 61.8079 159.075C61.8079 159.295 61.8579 159.48 61.9579 159.63C62.0679 159.78 62.2479 159.915 62.4979 160.035C62.7579 160.155 63.1029 160.28 63.5329 160.41C63.9829 160.54 64.3579 160.675 64.6579 160.815C64.9679 160.955 65.2179 161.115 65.4079 161.295C65.6079 161.475 65.7479 161.685 65.8279 161.925C65.9179 162.155 65.9629 162.42 65.9629 162.72C65.9629 163.21 65.8479 163.645 65.6179 164.025C65.3879 164.395 65.0729 164.685 64.6729 164.895C64.2729 165.105 63.8079 165.21 63.2779 165.21C62.8879 165.21 62.5279 165.165 62.1979 165.075C61.8779 164.985 61.6129 164.855 61.4029 164.685L61.2379 165.21H60.6229ZM67.0302 165V164.295L67.8852 164.16C68.0852 164.13 68.2102 164.065 68.2602 163.965C68.3202 163.865 68.3502 163.675 68.3502 163.395V159.24C68.3502 158.88 68.3152 158.64 68.2452 158.52C68.1852 158.4 68.0402 158.325 67.8102 158.295L67.0902 158.19L67.1802 157.47L69.5652 157.35L69.7452 157.425V163.455C69.7452 163.645 69.7702 163.8 69.8202 163.92C69.8702 164.04 70.0002 164.12 70.2102 164.16L71.0502 164.31V165H67.0302ZM68.8302 155.7C68.5402 155.7 68.3002 155.61 68.1102 155.43C67.9202 155.24 67.8252 155 67.8252 154.71C67.8252 154.42 67.9202 154.18 68.1102 153.99C68.3002 153.8 68.5402 153.705 68.8302 153.705C69.1302 153.705 69.3752 153.8 69.5652 153.99C69.7552 154.17 69.8502 154.405 69.8502 154.695C69.8502 154.985 69.7552 155.225 69.5652 155.415C69.3752 155.605 69.1302 155.7 68.8302 155.7ZM72.2353 165V164.31L72.9553 164.19C73.1153 164.16 73.2203 164.1 73.2703 164.01C73.3203 163.91 73.3453 163.73 73.3453 163.47V159.18C73.3453 158.82 73.3153 158.585 73.2553 158.475C73.1953 158.355 73.0553 158.28 72.8353 158.25L72.1003 158.145L72.2053 157.455L74.3053 157.29L74.4853 157.395L74.5903 158.73H74.6353C74.8153 158.42 75.0353 158.15 75.2953 157.92C75.5653 157.69 75.8603 157.51 76.1803 157.38C76.5003 157.25 76.8253 157.185 77.1553 157.185C77.7453 157.185 78.2303 157.32 78.6103 157.59C78.9903 157.85 79.2553 158.24 79.4053 158.76C79.6453 158.29 80.0003 157.91 80.4703 157.62C80.9403 157.33 81.4353 157.185 81.9553 157.185C82.4653 157.185 82.8953 157.285 83.2453 157.485C83.6053 157.685 83.8753 157.975 84.0553 158.355C84.2353 158.735 84.3253 159.2 84.3253 159.75V163.59C84.3253 163.81 84.3553 163.96 84.4153 164.04C84.4753 164.12 84.6003 164.175 84.7903 164.205L85.4953 164.31V165H81.9403V164.325L82.4803 164.22C82.6703 164.17 82.7903 164.11 82.8403 164.04C82.9003 163.96 82.9303 163.81 82.9303 163.59V160.155C82.9303 159.685 82.8853 159.31 82.7953 159.03C82.7053 158.75 82.5553 158.55 82.3453 158.43C82.1453 158.3 81.8703 158.235 81.5203 158.235C81.1303 158.235 80.7853 158.325 80.4853 158.505C80.1853 158.675 79.9503 158.915 79.7803 159.225C79.6203 159.535 79.5403 159.9 79.5403 160.32V163.53C79.5403 163.75 79.5603 163.905 79.6003 163.995C79.6503 164.075 79.7503 164.135 79.9003 164.175L80.5903 164.325V165H77.1403V164.325L77.6803 164.22C77.8703 164.17 77.9903 164.11 78.0403 164.04C78.1003 163.96 78.1303 163.81 78.1303 163.59V160.155C78.1303 159.675 78.0853 159.295 77.9953 159.015C77.9053 158.735 77.7553 158.535 77.5453 158.415C77.3453 158.295 77.0703 158.235 76.7203 158.235C76.3303 158.235 75.9853 158.325 75.6853 158.505C75.3853 158.675 75.1503 158.915 74.9803 159.225C74.8203 159.535 74.7403 159.9 74.7403 160.32V163.53C74.7403 163.76 74.7653 163.915 74.8153 163.995C74.8653 164.075 74.9653 164.135 75.1153 164.175L75.7903 164.325V165H72.2353ZM86.5419 165V164.295L87.3969 164.16C87.5969 164.13 87.7219 164.065 87.7719 163.965C87.8319 163.865 87.8619 163.675 87.8619 163.395V159.24C87.8619 158.88 87.8269 158.64 87.7569 158.52C87.6969 158.4 87.5519 158.325 87.3219 158.295L86.6019 158.19L86.6919 157.47L89.0769 157.35L89.2569 157.425V163.455C89.2569 163.645 89.2819 163.8 89.3319 163.92C89.3819 164.04 89.5119 164.12 89.7219 164.16L90.5619 164.31V165H86.5419ZM88.3419 155.7C88.0519 155.7 87.8119 155.61 87.6219 155.43C87.4319 155.24 87.3369 155 87.3369 154.71C87.3369 154.42 87.4319 154.18 87.6219 153.99C87.8119 153.8 88.0519 153.705 88.3419 153.705C88.6419 153.705 88.8869 153.8 89.0769 153.99C89.2669 154.17 89.3619 154.405 89.3619 154.695C89.3619 154.985 89.2669 155.225 89.0769 155.415C88.8869 155.605 88.6419 155.7 88.3419 155.7ZM91.567 165V164.295L92.407 164.16C92.607 164.13 92.732 164.065 92.782 163.965C92.842 163.865 92.872 163.675 92.872 163.395V155.325C92.872 154.975 92.837 154.75 92.767 154.65C92.697 154.54 92.522 154.465 92.242 154.425L91.582 154.32L91.657 153.585L94.117 153.51L94.267 153.675V163.455C94.267 163.645 94.292 163.8 94.342 163.92C94.392 164.04 94.527 164.12 94.747 164.16L95.587 164.31V165H91.567ZM96.5468 165V164.295L97.4018 164.16C97.6018 164.13 97.7268 164.065 97.7768 163.965C97.8368 163.865 97.8668 163.675 97.8668 163.395V159.24C97.8668 158.88 97.8318 158.64 97.7618 158.52C97.7018 158.4 97.5568 158.325 97.3268 158.295L96.6068 158.19L96.6968 157.47L99.0818 157.35L99.2618 157.425V163.455C99.2618 163.645 99.2868 163.8 99.3368 163.92C99.3868 164.04 99.5168 164.12 99.7268 164.16L100.567 164.31V165H96.5468ZM98.3468 155.7C98.0568 155.7 97.8168 155.61 97.6268 155.43C97.4368 155.24 97.3418 155 97.3418 154.71C97.3418 154.42 97.4368 154.18 97.6268 153.99C97.8168 153.8 98.0568 153.705 98.3468 153.705C98.6468 153.705 98.8918 153.8 99.0818 153.99C99.2718 154.17 99.3668 154.405 99.3668 154.695C99.3668 154.985 99.2718 155.225 99.0818 155.415C98.8918 155.605 98.6468 155.7 98.3468 155.7ZM104.237 165.21C103.787 165.21 103.417 165.13 103.127 164.97C102.837 164.81 102.617 164.565 102.467 164.235C102.327 163.905 102.257 163.485 102.257 162.975V158.31H101.072V157.545C101.422 157.515 101.712 157.41 101.942 157.23C102.172 157.05 102.352 156.77 102.482 156.39C102.612 156 102.697 155.505 102.737 154.905L103.457 154.815L103.652 154.89V157.395H105.977V158.31H103.652V162.87C103.652 163.29 103.737 163.605 103.907 163.815C104.077 164.025 104.342 164.13 104.702 164.13C104.962 164.13 105.207 164.09 105.437 164.01C105.677 163.92 105.912 163.795 106.142 163.635L106.487 164.16C106.167 164.49 105.812 164.75 105.422 164.94C105.032 165.12 104.637 165.21 104.237 165.21ZM110.395 165.21C109.605 165.21 109.005 164.995 108.595 164.565C108.195 164.125 107.995 163.485 107.995 162.645V159.18C107.995 158.82 107.965 158.585 107.905 158.475C107.845 158.365 107.705 158.29 107.485 158.25L106.825 158.145L106.945 157.455L109.21 157.29L109.39 157.395V162.225C109.39 162.705 109.435 163.085 109.525 163.365C109.615 163.645 109.765 163.845 109.975 163.965C110.185 164.085 110.47 164.145 110.83 164.145C111.25 164.145 111.605 164.065 111.895 163.905C112.195 163.735 112.425 163.495 112.585 163.185C112.755 162.865 112.84 162.495 112.84 162.075V159.18C112.84 158.83 112.81 158.6 112.75 158.49C112.7 158.37 112.56 158.29 112.33 158.25L111.67 158.145L111.775 157.455L114.07 157.29L114.235 157.395V163.515C114.235 163.755 114.265 163.92 114.325 164.01C114.395 164.09 114.525 164.15 114.715 164.19L115.465 164.31V165L113.14 165.09L112.93 163.875H112.885C112.635 164.185 112.38 164.44 112.12 164.64C111.86 164.83 111.59 164.97 111.31 165.06C111.03 165.16 110.725 165.21 110.395 165.21ZM119.678 165.21C119.038 165.21 118.488 165.06 118.028 164.76C117.568 164.46 117.213 164.03 116.963 163.47C116.723 162.9 116.603 162.22 116.603 161.43C116.603 160.56 116.753 159.81 117.053 159.18C117.353 158.54 117.773 158.05 118.313 157.71C118.863 157.36 119.513 157.185 120.263 157.185C120.593 157.185 120.923 157.23 121.253 157.32C121.593 157.41 121.878 157.53 122.108 157.68V155.31C122.108 154.96 122.068 154.735 121.988 154.635C121.918 154.525 121.743 154.45 121.463 154.41L120.803 154.305L120.893 153.585L123.338 153.51L123.503 153.675V163.56C123.503 163.8 123.533 163.965 123.593 164.055C123.663 164.135 123.798 164.195 123.998 164.235L124.733 164.355V165.045L122.423 165.135L122.213 163.95H122.168C121.948 164.23 121.708 164.465 121.448 164.655C121.198 164.835 120.923 164.97 120.623 165.06C120.333 165.16 120.018 165.21 119.678 165.21ZM120.113 164.16C120.513 164.16 120.858 164.065 121.148 163.875C121.448 163.675 121.683 163.4 121.853 163.05C122.023 162.7 122.108 162.3 122.108 161.85V158.775C121.858 158.575 121.568 158.425 121.238 158.325C120.918 158.215 120.583 158.16 120.233 158.16C119.753 158.16 119.353 158.275 119.033 158.505C118.723 158.735 118.488 159.085 118.328 159.555C118.168 160.015 118.088 160.59 118.088 161.28C118.088 161.9 118.163 162.425 118.313 162.855C118.473 163.275 118.703 163.6 119.003 163.83C119.313 164.05 119.683 164.16 120.113 164.16ZM129.211 165.21C128.491 165.21 127.861 165.05 127.321 164.73C126.791 164.41 126.376 163.955 126.076 163.365C125.786 162.775 125.641 162.085 125.641 161.295C125.641 160.465 125.791 159.745 126.091 159.135C126.401 158.515 126.831 158.035 127.381 157.695C127.931 157.355 128.571 157.185 129.301 157.185C129.851 157.185 130.331 157.295 130.741 157.515C131.161 157.735 131.486 158.045 131.716 158.445C131.946 158.845 132.061 159.31 132.061 159.84C132.061 160.05 132.041 160.28 132.001 160.53C131.971 160.77 131.921 161.02 131.851 161.28H127.156C127.176 161.87 127.286 162.38 127.486 162.81C127.686 163.23 127.961 163.55 128.311 163.77C128.671 163.99 129.091 164.1 129.571 164.1C129.951 164.1 130.321 164.025 130.681 163.875C131.041 163.715 131.366 163.49 131.656 163.2L132.166 163.71C131.816 164.18 131.376 164.55 130.846 164.82C130.326 165.08 129.781 165.21 129.211 165.21ZM127.156 160.47H130.606C130.626 160.37 130.636 160.265 130.636 160.155C130.646 160.035 130.651 159.91 130.651 159.78C130.651 159.17 130.521 158.715 130.261 158.415C130.011 158.105 129.636 157.95 129.136 157.95C128.756 157.95 128.426 158.045 128.146 158.235C127.876 158.425 127.656 158.71 127.486 159.09C127.316 159.46 127.206 159.92 127.156 160.47Z" fill="white"/>
<defs>
<radialGradient id="paint0_radial_71_2" cx="0" cy="0" r="1" gradientUnits="userSpaceOnUse" gradientTransform="translate(80 130) scale(73)">
<stop stop-color="#D9D9D9"/>
<stop offset="1" stop-color="#737373" stop-opacity="0.04"/>
</radialGradient>
<radialGradient id="paint1_radial_71_2" cx="0" cy="0" r="1" gradientUnits="userSpaceOnUse" gradientTransform="translate(80.5 46.5) rotate(90) scale(46.5)">
<stop stop-color="white"/>
<stop offset="0.889423" stop-color="#999999" stop-opacity="0.32"/>
</radialGradient>
</defs>
</svg>
